Coordinates
version=1
nRows=10
nColumns=46
inDegrees=yes

Units are S.I. units (second, meters, Newtons, ...)
Angles are in degrees.

endheader
time	pelvis_tilt	pelvis_list	pelvis_rotation	pelvis_tx	pelvis_ty	pelvis_tz	bb_angle	bb_tx	bb_ty	bb_tz	hip_flexion_r	hip_adduction_r	hip_rotation_r	knee_angle_r	knee_angle_r_beta	ankle_angle_r	subtalar_angle_r	mtp_angle_r	crank_angle_r	hip_flexion_l	hip_adduction_l	hip_rotation_l	knee_angle_l	knee_angle_l_beta	ankle_angle_l	subtalar_angle_l	mtp_angle_l	crank_angle_l	lumbar_extension	lumbar_bending	lumbar_rotation	arm_flex_r	arm_add_r	arm_rot_r	elbow_flex_r	pro_sup_r	wrist_flex_r	wrist_dev_r	arm_flex_l	arm_add_l	arm_rot_l	elbow_flex_l	pro_sup_l	wrist_flex_l	wrist_dev_l
      7.50500000	    -14.71018137	      0.76770856	      0.78452074	      0.18883643	      1.13330485	     -0.22783681	      0.00000000	      0.50000000	      0.00000000	      0.25000000	     52.42157239	     -3.67259081	      5.35208805	     43.45251980	      0.75838954	     -1.15270425	    -10.18788423	      0.00000000	      0.00000000	     64.76510839	      0.79456022	      7.60942511	     96.42242777	      1.68288884	     -8.50042509	    -10.26336453	      0.00000000	      0.00000000	    -62.79418922	      1.08849801	     -7.74941481	     89.14416162	     -7.13548526	     39.80910475	     45.12235796	     35.65605151	      0.00000000	      0.00000000	     88.78806490	    -25.18030550	     35.77446397	     54.83715803	     38.13997901	      0.00000000	      0.00000000
      7.51000000	    -14.74271182	      1.28949733	      1.32448799	      0.18971310	      1.13300379	     -0.22647015	      0.00000000	      0.50000000	      0.00000000	      0.25000000	     50.91866425	     -4.30941121	      5.49967526	     41.33524260	      0.72143608	     -2.54345240	    -10.28365202	      0.00000000	      0.00000000	     66.04714257	      1.39631844	      7.46341539	     98.08247091	      1.71186206	     -7.63024468	     -9.78131395	      0.00000000	      0.00000000	    -62.63659283	      0.80102405	     -8.64576788	     89.13002110	     -6.94889456	     40.01620655	     44.36805555	     36.16877459	      0.00000000	      0.00000000	     88.86772218	    -25.32804763	     36.25712779	     54.92132571	     38.67427961	      0.00000000	      0.00000000
      7.51500000	    -14.78123146	      1.88960004	      1.92884753	      0.19058399	      1.13302707	     -0.22530126	      0.00000000	      0.50000000	      0.00000000	      0.25000000	     49.47106048	     -5.12953756	      5.47118219	     39.36408411	      0.68703287	     -3.86100050	    -10.15661746	      0.00000000	      0.00000000	     67.29291857	      2.07564574	      7.22388445	     99.59865728	      1.73832450	     -6.73329141	     -9.25804750	      0.00000000	      0.00000000	    -62.46536166	      0.52055901	     -9.65183623	     89.12364497	     -6.67224651	     40.35694621	     43.20481938	     36.50884587	      0.00000000	      0.00000000	     88.93671098	    -25.40074630	     36.65162523	     54.88707295	     39.06563097	      0.00000000	      0.00000000
      7.52000000	    -14.85651724	      2.42495200	      2.54836716	      0.19121316	      1.13345634	     -0.22439555	      0.00000000	      0.50000000	      0.00000000	      0.25000000	     47.94872447	     -5.90431989	      5.43548635	     37.21224493	      0.64947620	     -5.30178523	    -10.16113623	      0.00000000	      0.00000000	     68.55432855	      2.78582126	      7.03957522	    100.97335874	      1.76231757	     -5.81716342	     -8.83793025	      0.00000000	      0.00000000	    -62.32937103	      0.28139726	    -10.50913641	     89.10079139	     -6.75184844	     40.69681117	     42.58269176	     36.48144882	      0.00000000	      0.00000000	     88.99175603	    -25.16721299	     36.82639940	     54.92179571	     39.10457698	      0.00000000	      0.00000000
      7.52500000	    -15.10959327	      2.93640129	      3.13218905	      0.19155646	      1.13400423	     -0.22327519	      0.00000000	      0.50000000	      0.00000000	      0.25000000	     46.60660767	     -6.63779679	      5.37261151	     35.03710195	      0.61151279	     -6.92921219	     -9.94231623	      0.00000000	      0.00000000	     70.02279178	      3.35014088	      6.77544618	    102.19708288	      1.78367558	     -5.09747035	     -8.41024364	      0.00000000	      0.00000000	    -62.06048469	      0.00154198	    -11.31972133	     89.08193839	     -6.79784292	     40.94857799	     42.04687885	     36.44719541	      0.00000000	      0.00000000	     89.04875420	    -24.88474204	     36.94410158	     54.86500381	     39.10905282	      0.00000000	      0.00000000
      7.53000000	    -15.49268597	      3.46758957	      3.73901832	      0.19176232	      1.13445444	     -0.22241158	      0.00000000	      0.50000000	      0.00000000	      0.25000000	     45.40866600	     -7.43811488	      5.23350518	     32.91718282	      0.57451322	     -8.29716636	     -9.42857865	      0.00000000	      0.00000000	     71.61339095	      3.97347688	      6.44537463	    103.30521591	      1.80301615	     -4.28472558	     -8.21631482	      0.00000000	      0.00000000	    -61.68491168	     -0.25676381	    -12.09019075	     89.03112890	     -6.90912157	     41.08613488	     41.67492696	     36.41229912	      0.00000000	      0.00000000	     89.11817303	    -24.53967082	     37.01873335	     54.85406586	     39.11107036	      0.00000000	      0.00000000
      7.53500000	    -15.63273750	      3.67616528	      4.37745306	      0.19207287	      1.13551465	     -0.22150361	      0.00000000	      0.50000000	      0.00000000	      0.25000000	     43.79395032	     -7.93699061	      4.81957420	     30.60154241	      0.53409767	    -10.31166480	     -9.94660026	      0.00000000	      0.00000000	     72.95945855	      4.38245493	      6.46035123	    104.33808415	      1.82104310	     -3.12883801	     -7.23060102	      0.00000000	      0.00000000	    -61.44202551	     -0.28356676	    -12.68298081	     89.10105014	     -6.74237536	     41.89411340	     40.39732185	     36.31098393	      0.00000000	      0.00000000	     89.17641485	    -24.05291062	     37.06091371	     54.22565755	     38.97455345	      0.00000000	      0.00000000
      7.54000000	    -15.96108809	      4.06839333	      4.99271204	      0.19216821	      1.13653213	     -0.22065418	      0.00000000	      0.50000000	      0.00000000	      0.25000000	     42.50128399	     -8.63061941	      4.35395384	     28.50377358	      0.49748470	    -11.98022610	     -9.67946010	      0.00000000	      0.00000000	     74.45667325	      4.88603144	      6.20550268	    105.18444406	      1.83581487	     -2.55304478	     -6.77017539	      0.00000000	      0.00000000	    -61.07324429	     -0.46479136	    -13.30738911	     89.10148752	     -6.79487854	     42.38990627	     39.56776740	     36.24762163	      0.00000000	      0.00000000	     89.23404564	    -23.43527250	     36.86230054	     53.76296992	     38.83756841	      0.00000000	      0.00000000
      7.54500000	    -16.45415663	      4.51006517	      5.50128494	      0.19216172	      1.13730030	     -0.21973726	      0.00000000	      0.50000000	      0.00000000	      0.25000000	     41.53158589	     -9.34234482	      3.79973419	     26.67770483	      0.46561379	    -13.29447882	     -8.94721178	      0.00000000	      0.00000000	     76.10166963	      5.27743571	      5.79720175	    105.90448540	      1.84838196	     -1.88407109	     -6.56328006	      0.00000000	      0.00000000	    -60.63408338	     -0.80756450	    -14.00550416	     89.01961485	     -6.91874256	     42.51647564	     39.26574808	     36.21549069	      0.00000000	      0.00000000	     89.27455528	    -22.96545746	     36.86386109	     53.71217716	     38.81322828	      0.00000000	      0.00000000
      7.55000000	    -16.57252614	      4.74085913	      6.16933444	      0.19221864	      1.13895497	     -0.21885232	      0.00000000	      0.50000000	      0.00000000	      0.25000000	     39.89613458	     -9.87367381	      3.12250970	     24.46220895	      0.42694609	    -15.26796888	     -9.07580663	      0.00000000	      0.00000000	     77.30044885	      5.73133834	      5.74669366	    106.47509874	      1.85834104	     -1.07792790	     -5.58713005	      0.00000000	      0.00000000	    -60.45477879	     -0.84258451	    -14.32084775	     89.09415721	     -7.03373950	     43.31404509	     38.02588561	     36.12152131	      0.00000000	      0.00000000	     89.32771175	    -21.81799478	     36.58007400	     52.65196749	     38.52810291	      0.00000000	      0.00000000
